<?xml version="1.0" encoding="UTF-8" standalone="no"?><!DOCTYPE svg PUBLIC "-//W3C//DTD SVG 1.1//EN" "http://www.w3.org/Graphics/SVG/1.1/DTD/svg11.dtd"><svg width="100%" height="100%" viewBox="0 0 482 781" version="1.1" xmlns="http://www.w3.org/2000/svg" xmlns:xlink="http://www.w3.org/1999/xlink" xml:space="preserve" xmlns:serif="http://www.serif.com/" style="fill-rule:evenodd;clip-rule:evenodd;stroke-linejoin:round;stroke-miterlimit:2;"><g><path d="M343.713,488.921c0,0 7.455,2.13 22.366,6.39c14.911,4.26 32.751,11.982 53.52,23.165c20.769,11.183 41.271,26.36 61.508,45.532l0,-138.991c-26.627,-25.562 -61.508,-43.934 -104.643,-55.117c-43.135,-11.183 -84.673,-17.307 -124.613,-18.372c-39.94,-1.065 -59.91,-1.598 -59.91,-1.598c46.863,-30.887 85.472,-75.886 115.826,-134.997c30.354,-59.111 45.532,-130.737 45.532,-214.877l-127.808,0c0,0 -0.799,14.645 -2.396,43.934c-1.598,29.289 -8.787,62.573 -21.568,99.85c-12.781,37.277 -35.413,74.821 -67.898,112.631c-32.485,37.81 -76.951,68.963 -133.4,93.46l0,119.82c0,0 11.183,-1.864 33.55,-5.592c22.366,-3.728 48.727,-6.124 79.081,-7.189c30.354,-1.065 60.443,0.533 90.264,4.793l0,318.931l140.589,0l0,-291.772Z" style="fill:#008b68;fill-rule:nonzero;"/></g></svg>