<?xml version="1.0" encoding="UTF-8" standalone="no"?><!DOCTYPE svg PUBLIC "-//W3C//DTD SVG 1.1//EN" "http://www.w3.org/Graphics/SVG/1.1/DTD/svg11.dtd"><svg width="100%" height="100%" viewBox="0 0 3706 781" version="1.1" xmlns="http://www.w3.org/2000/svg" xmlns:xlink="http://www.w3.org/1999/xlink" xml:space="preserve" xmlns:serif="http://www.serif.com/" style="fill-rule:evenodd;clip-rule:evenodd;stroke-linejoin:round;stroke-miterlimit:2;"><g><g><path d="M698.466,658.784l57.58,0l0,-439l279.785,439l59.126,0l0,-541.022l-56.807,0l0,439.773l-280.558,-439.773l-59.126,0l0,541.022Z" style="fill:#008b68;fill-rule:nonzero;"/><path d="M1481.298,287.745l0,56.006c-30.803,-39.904 -77.008,-59.506 -129.514,-59.506c-108.511,0 -187.62,75.608 -187.62,189.02c0,113.412 79.108,189.72 187.62,189.72c54.606,0 102.211,-21.002 132.314,-63.007l0,58.806l64.407,0l0,-371.039l-67.207,0Zm-123.913,316.434c-71.408,0 -125.313,-51.805 -125.313,-130.914c0,-79.108 53.906,-130.214 125.313,-130.214c70.707,0 124.613,51.105 124.613,130.214c0,79.108 -53.906,130.914 -124.613,130.914Z" style="fill:#008b68;fill-rule:nonzero;"/><path d="M1712.322,350.052l0,-62.307l-64.407,0l0,371.039l67.207,0l0,-184.82c0,-81.209 44.805,-125.313 116.912,-125.313c4.901,0 9.801,0 15.402,0.7l0,-65.107c-65.107,0 -111.312,22.402 -135.114,65.807Z" style="fill:#008b68;fill-rule:nonzero;"/><path d="M1966.449,350.052l0,-62.307l-64.407,0l0,371.039l67.207,0l0,-184.82c0,-81.209 44.805,-125.313 116.912,-125.313c4.901,0 9.801,0 15.402,0.7l0,-65.107c-65.107,0 -111.312,22.402 -135.114,65.807Z" style="fill:#008b68;fill-rule:nonzero;"/><path d="M2435.499,287.745l0,56.006c-30.803,-39.904 -77.008,-59.506 -129.514,-59.506c-108.511,0 -187.62,75.608 -187.62,189.02c0,113.412 79.108,189.72 187.62,189.72c54.606,0 102.211,-21.002 132.314,-63.007l0,58.806l64.407,0l0,-371.039l-67.207,0Zm-123.913,316.434c-71.408,0 -125.313,-51.805 -125.313,-130.914c0,-79.108 53.906,-130.214 125.313,-130.214c70.707,0 124.613,51.105 124.613,130.214c0,79.108 -53.906,130.914 -124.613,130.914Z" style="fill:#008b68;fill-rule:nonzero;"/><path d="M2598.616,340.541c-4.694,-0.112 -9.402,-0.084 -14.124,0.081c-14.109,0.495 -26.361,1.609 -36.757,3.342l-15.594,2.599l0,-55.692c26.237,-11.386 46.905,-25.866 62.004,-43.44c15.099,-17.574 25.618,-35.024 31.559,-52.35c5.94,-17.326 9.282,-32.796 10.025,-46.41l1.114,-20.42l59.405,0c0,39.108 -7.054,72.4 -21.163,99.874c-14.109,27.475 -32.054,48.39 -53.836,62.746l27.846,0.743c18.564,0.495 37.871,3.342 57.92,8.539c20.049,5.198 36.262,13.737 48.638,25.618l0,64.603c-9.406,-8.911 -18.935,-15.965 -28.589,-21.163c-9.653,-5.198 -17.945,-8.787 -24.876,-10.767l-10.396,-2.97l-25.969,-5.017l0,193.516c0,39.904 20.302,62.307 58.106,62.307c19.602,0 38.504,-6.301 52.506,-17.502l21.002,48.305c-20.302,17.502 -51.105,25.903 -81.209,25.903c-74.908,0 -117.612,-41.304 -117.612,-116.212l0,-206.231Z" style="fill:#008b68;"/><path d="M2884.246,216.337c26.603,0 45.505,-19.602 45.505,-44.805c0,-23.803 -19.602,-42.705 -45.505,-42.705c-25.903,0 -45.505,19.602 -45.505,44.105c0,24.503 19.602,43.405 45.505,43.405Zm-33.604,442.447l67.207,0l0,-371.039l-67.207,0l0,371.039Z" style="fill:#008b68;fill-rule:nonzero;"/><path d="M3280.488,287.745l-130.214,297.532l-127.414,-297.532l-70.007,0l162.417,371.039l68.607,0l162.417,-371.039l-65.807,0Z" style="fill:#008b68;fill-rule:nonzero;"/><path d="M3538.116,604.179c-62.307,0 -108.511,-29.403 -127.414,-80.509l294.731,-57.406c-2.1,-110.612 -81.209,-182.019 -182.719,-182.019c-107.811,0 -186.22,79.108 -186.22,189.02c0,110.612 79.808,189.72 199.521,189.72c61.607,0 112.712,-21.002 145.615,-60.206l-36.404,-43.405c-27.303,30.103 -63.707,44.805 -107.111,44.805Zm-15.402,-263.228c60.206,0 104.311,37.804 116.212,91.01l-237.325,44.805l0,-7.001c0,-77.708 50.405,-128.814 121.113,-128.814Z" style="fill:#008b68;fill-rule:nonzero;"/></g><g><path d="M343.515,488.921c0,0 7.455,2.13 22.366,6.39c14.911,4.26 32.751,11.982 53.52,23.165c20.769,11.183 41.271,26.36 61.508,45.532l0,-138.991c-26.627,-25.562 -61.508,-43.934 -104.643,-55.117c-43.135,-11.183 -84.673,-17.307 -124.613,-18.372c-39.94,-1.065 -59.91,-1.598 -59.91,-1.598c46.863,-30.887 85.472,-75.886 115.826,-134.997c30.354,-59.111 45.532,-130.737 45.532,-214.877l-127.808,0c0,0 -0.799,14.645 -2.396,43.934c-1.598,29.289 -8.787,62.573 -21.568,99.85c-12.781,37.277 -35.413,74.821 -67.898,112.631c-32.485,37.81 -76.951,68.963 -133.4,93.46l0,119.82c0,0 11.183,-1.864 33.55,-5.592c22.366,-3.728 48.727,-6.124 79.081,-7.189c30.354,-1.065 60.443,0.533 90.264,4.793l0,318.931l140.589,0l0,-291.772Z" style="fill:#008b68;fill-rule:nonzero;"/></g></g></svg>